<?xml version="1.0" encoding="UTF-8"?>
<!DOCTYPE svg PUBLIC "-//W3C//DTD SVG 1.1//EN" "http://www.w3.org/Graphics/SVG/1.1/DTD/svg11.dtd">
<!-- Creator: CorelDRAW 2020 (64 Bit) -->
<svg xmlns="http://www.w3.org/2000/svg" xml:space="preserve" width="60.0498mm" height="18.3224mm" version="1.1" style="shape-rendering:geometricPrecision; text-rendering:geometricPrecision; image-rendering:optimizeQuality; fill-rule:evenodd; clip-rule:evenodd"
viewBox="0 0 10713.39 3268.87"
 xmlns:xlink="http://www.w3.org/1999/xlink"
 xmlns:xodm="http://www.corel.com/coreldraw/odm/2003">
 <defs>
  <style type="text/css">
   <![CDATA[
    .fil0 {fill:#FEFEFE}
    .fil1 {fill:red}
   ]]>
  </style>
 </defs>
 <g id="Camada_x0020_1">
  <metadata id="CorelCorpID_0Corel-Layer"/>
  <path class="fil0" d="M3317.08 3098.76c8.17,-16.38 -24.55,-20.46 16.36,-16.38 20.46,4.1 4.09,0 16.38,12.27l-32.74 4.1zm-102.3 -45.01c45.01,-28.65 49.1,0 49.1,0 -8.19,4.09 12.27,8.19 -20.46,8.19 -45.01,4.09 -20.45,0 -28.63,-8.19zm188.22 -135.04c-4.09,28.65 0,36.82 -12.27,61.39 -32.74,-16.38 -8.19,-4.1 -16.36,-24.57 -20.46,-24.55 -16.38,-16.36 -4.1,-44.99 65.48,-12.29 16.38,-4.1 32.74,8.17zm151.4 8.19l0 -8.19c16.38,-16.36 -32.74,-8.17 12.27,-4.09 20.46,0 8.19,-4.09 16.38,4.09 12.27,12.27 12.27,4.1 0,12.27 0,28.65 -28.65,-4.09 -28.65,-4.09zm-437.83 -159.59c4.1,-16.36 -12.27,-12.27 8.19,-20.46 36.82,-12.27 20.46,8.19 24.55,8.19 -8.17,24.55 0,36.82 -32.74,12.27zm-102.28 -49.1c20.45,-12.27 20.45,-8.19 32.72,0 0,0 -4.09,0 -4.09,4.09 -4.09,8.19 -28.63,-4.09 -28.63,-4.09zm556.49 -45.01l12.27 28.65 8.17 139.12c-45.01,-4.1 -32.72,-8.19 -24.55,-40.93 8.19,-40.91 0,-40.91 -4.09,-77.75 -16.38,-28.63 -16.38,-20.45 -4.09,-57.29 32.72,-8.17 4.09,-4.09 12.27,8.19zm-679.25 -65.48l4.09 16.38c0,16.36 0,8.19 -4.09,16.36l-8.19 -12.27c0,-20.46 0,-8.17 8.19,-20.46zm662.88 -28.63c24.55,12.27 16.38,-16.36 20.46,24.55 8.19,40.93 -8.19,24.55 -12.27,24.55 -20.46,-32.74 -8.19,-40.91 -8.19,-49.1zm4.1 -130.93l-4.1 28.63c-12.27,-12.27 -4.09,-4.09 -4.09,-24.55 0,-4.09 4.09,-4.09 8.19,-4.09zm-45.01 -85.94l36.82 0c16.36,16.38 16.36,-24.55 12.27,28.65 -24.55,12.27 -20.46,12.27 -49.1,0 -12.27,-8.19 -4.1,8.17 -4.1,-16.38 0,-4.09 0,-4.09 0,-8.17 0,-4.1 4.1,-4.1 4.1,-4.1zm-290.52 -184.14c8.17,-4.09 -16.38,-28.63 24.55,0 0,53.2 0,16.38 -16.38,28.65l-8.17 -28.65zm204.58 4.1c-32.74,40.91 -94.11,12.27 -90.02,-53.2 4.1,-28.63 0,-16.36 12.29,-32.74 20.45,-20.45 24.55,-32.72 57.27,-36.82 0,40.93 -16.36,24.55 -4.09,65.48 8.19,20.46 16.38,32.74 24.55,57.29zm-400.99 -163.67c12.27,-12.27 -4.1,-12.27 49.1,-12.27 -16.38,12.27 -4.09,16.36 -49.1,12.27zm634.22 -12.27c-24.55,32.72 -77.73,12.27 -94.11,-8.19 16.38,-4.09 36.82,-8.19 57.29,-8.19l32.74 12.27c0,-4.09 4.09,4.1 4.09,4.1zm-118.66 0l-143.21 16.36 -8.19 -16.36c-8.19,-12.27 -12.27,16.36 -4.09,-16.38l163.67 0c8.19,32.74 4.09,8.19 -8.19,16.38zm822.46 -114.57l4.09 -12.27c-4.09,-20.46 -4.09,-12.27 12.27,-8.19l16.38 -4.09c4.09,16.36 8.17,8.17 4.09,32.72 -4.09,57.29 0,12.29 -12.27,32.74 -20.46,-16.36 -20.46,-12.27 -24.55,-40.91zm-830.65 -8.19c-24.55,4.09 -24.55,-4.09 -32.72,-32.74 16.36,-12.27 -20.46,-12.27 24.55,-8.17l16.36 12.27c16.38,12.27 8.19,-8.19 4.09,12.27 0,40.91 4.1,-4.1 -12.27,16.36zm-499.2 -49.1c8.19,16.36 12.27,16.36 0,32.74 -28.63,-32.74 0,-32.74 0,-32.74zm409.2 -20.46l28.63 8.19c16.38,16.36 16.38,-12.27 12.27,20.46l-53.18 -4.1c0,-49.1 -4.1,-8.19 12.27,-24.55zm-28.65 -110.47l0 20.45 -28.63 4.1 -65.48 28.63 12.27 -49.1 81.84 -4.09zm-274.14 -36.84c4.09,-36.82 0,-16.36 12.27,-24.55 4.09,-12.27 0,-12.27 8.17,-4.09 8.19,12.27 4.1,0 8.19,20.46 4.09,4.09 4.09,24.55 4.09,28.63l24.55 0c4.1,-20.46 8.19,-40.91 12.29,-65.48l16.36 -49.1c12.27,28.65 4.09,40.93 8.19,77.75 12.27,69.56 36.82,32.74 4.09,102.3l-61.37 -16.38c0,45.01 8.17,188.24 -8.19,216.87 -12.27,-12.27 -32.74,-261.89 -28.63,-286.43zm204.58 -45.01l-20.46 0c-12.27,-16.36 -16.36,24.57 -12.27,-32.72l36.84 -4.1 -4.1 36.82zm40.93 -61.37c32.74,8.19 28.63,4.1 49.1,24.55l-49.1 16.38 0 -40.93zm-32.74 -32.74c0,4.1 0,24.55 0,28.65 -24.55,-12.27 -28.65,-12.27 -12.27,-49.1 8.19,12.27 4.09,-4.1 12.27,20.45zm257.78 24.55c-4.09,-8.17 -4.09,16.38 -12.27,-28.63 0,-16.36 4.09,-20.46 4.09,-32.74 45.01,-8.17 16.38,-4.09 28.65,8.19l20.46 4.09c0,12.27 -4.1,32.74 -8.19,45.01 -8.19,24.55 -4.09,8.19 -16.38,24.55l-16.36 -20.46zm61.37 -102.28c-8.17,0 8.19,12.27 -53.18,0 -16.38,-4.1 -24.55,-8.19 -49.1,-8.19 -32.74,-110.49 -159.59,-90.02 -298.71,-90.02 4.09,-61.37 -12.27,4.1 40.91,-77.73 159.59,49.1 290.52,57.27 462.38,65.46 24.55,0 49.1,0 77.75,0 65.48,0 57.29,-4.09 77.75,16.38l-319.17 0c-12.27,24.55 -20.46,36.82 -12.27,69.56 32.74,16.36 40.93,8.17 73.65,24.55zm-417.37 -188.24l-4.09 -4.09c-8.19,20.46 -4.09,24.55 -24.55,8.19 -4.09,-4.1 -28.65,20.46 0,-16.38 49.1,-4.09 16.36,-4.09 28.63,12.27zm65.48 -302.79l0 -12.27c4.09,-8.17 20.46,-36.82 24.55,-8.17l-4.09 36.82c-12.27,8.17 20.46,8.17 -32.74,12.27l12.27 -28.65zm-298.71 -155.48c16.38,-12.27 -4.09,-8.19 32.74,-12.27 0,0 28.65,4.09 36.82,4.09 4.1,32.74 8.19,20.46 -12.27,45.01 0,57.29 -12.27,163.67 -73.65,171.86l16.36 -45.01 -20.45 -24.55c-4.1,-4.09 -4.1,-4.09 -4.1,-4.09l24.55 -135.04zm155.5 -143.21l4.09 -28.65 24.55 0c16.38,20.46 12.27,36.82 -16.36,36.82 0,0 -4.1,0 -8.19,-4.09 0,-4.09 -4.09,-4.09 -4.09,-4.09zm-114.57 16.36c-4.1,-40.91 -4.1,-36.82 8.19,-57.29 8.17,4.09 49.1,16.38 -8.19,57.29zm458.28 -147.31c4.1,-28.63 28.65,-36.82 61.39,-24.55 -12.27,32.74 -16.38,28.65 -61.39,24.55zm-511.48 -8.17c-32.74,0 -16.36,16.36 -32.74,-24.55 40.93,-4.1 32.74,-8.19 32.74,24.55zm245.51 -192.32l106.4 8.19 4.09 40.91 -73.65 -8.17 -36.84 -12.27c-16.36,-8.19 -4.09,8.17 -4.09,-16.38 0,0 0,0 0,-4.09 0,-4.1 4.09,-4.1 4.09,-8.19zm98.21 -32.74c-57.29,0 -36.82,-4.09 -49.1,-16.36 53.18,0 32.72,0 49.1,16.36zm-126.85 12.27c-24.55,0 -20.46,-16.36 -20.46,-36.82l45.01 -8.19c-4.09,16.38 -12.27,45.01 -24.55,45.01zm171.86 -61.37l8.17 28.63c-8.17,4.1 20.46,28.65 -24.55,0 0,-49.1 -4.09,-16.36 16.38,-28.63zm126.85 -135.04c16.36,-16.36 -24.55,-16.36 32.74,-16.36 -20.46,20.46 28.63,16.36 -32.74,16.36zm-703.8 793.83c0,159.59 -32.74,143.21 204.6,139.12l28.63 -8.19c61.37,49.1 220.96,85.92 315.07,94.11 28.65,8.19 8.19,-12.27 24.55,20.46 -12.27,16.36 8.19,8.19 -28.63,16.36 0,4.1 0,4.1 0,8.19 0,0 0,4.09 0,4.09l-4.09 24.57 -102.3 -4.1c-4.1,0 -4.1,4.1 -4.1,4.1l-12.27 8.17c-12.27,8.19 -24.55,4.1 -40.91,4.1l-8.19 -69.56c0,-16.38 0,-16.38 -4.09,-28.65l-32.74 0c-24.55,12.27 -32.74,12.27 -32.74,40.93 -12.27,12.27 0,8.17 -24.55,16.36 -8.19,0 -8.19,0 -16.36,0 -12.27,0 -36.84,-4.09 -49.12,-8.19 16.38,-45.01 8.19,4.1 16.38,-49.1l-184.14 4.09c-8.19,-20.45 -4.09,-20.45 -4.09,-57.27l-36.84 4.09c-12.27,36.82 -20.45,155.48 -4.09,196.41 12.27,24.55 20.46,28.63 73.65,40.91 118.68,28.65 110.49,-28.63 171.86,-8.17 40.93,12.27 53.2,16.36 94.11,12.27l28.65 12.27c-12.27,28.63 -4.1,16.36 -24.55,28.63 -53.2,4.1 -57.29,-4.09 -98.21,-12.27 -36.82,-8.19 -40.91,8.19 -81.84,8.19 -57.29,4.09 -130.93,-32.74 -163.67,-24.55 -24.55,57.29 -8.19,208.68 -4.09,286.42 8.17,180.05 -16.38,155.5 -4.1,270.07 28.65,200.5 -69.56,102.3 49.12,491.02 28.63,-4.09 40.91,-12.27 65.46,-28.63 36.82,-16.38 40.93,-8.19 45.01,-57.29 0,-53.2 0,-126.85 0,-184.14 0,-57.29 -8.19,-122.76 -12.27,-180.05 -4.09,-45.01 -32.74,-130.93 -4.09,-167.76 28.63,16.36 12.27,-20.46 20.45,32.74l24.57 552.39c-61.39,24.55 -126.85,49.1 -147.31,94.11l0 36.82c53.18,-12.27 -8.19,0 45.01,-20.45 53.18,-16.38 143.21,-61.39 188.22,-90.02 110.47,-73.65 69.56,-61.37 85.92,-200.5 -20.45,-24.55 -16.36,-94.11 -16.36,-126.85 -4.09,-4.1 -24.55,-4.1 -28.65,-4.1 -20.45,-4.09 -8.17,-4.09 -20.45,-12.27 24.55,-12.27 49.1,-20.45 77.73,-16.36l73.66 16.36c-45.01,20.46 -73.66,4.1 -65.48,61.39 4.09,40.91 -4.09,61.37 -4.09,114.56 0,122.76 8.17,126.85 -65.48,192.32 -40.91,8.19 -8.19,-8.19 -40.91,0 -36.84,12.27 -110.49,65.48 -139.12,90.02 -135.04,122.75 -98.21,249.59 -102.3,515.56 -4.1,126.85 -24.55,167.78 53.18,241.42 36.84,12.27 28.65,-36.82 180.05,8.19 77.75,20.46 61.37,32.74 159.59,24.55 57.29,0 118.66,-12.27 171.84,-24.55 151.42,-32.74 302.81,-4.1 298.71,-290.52 0,-126.85 -12.27,-208.68 -94.11,-286.43 28.65,-24.55 45.01,-12.27 57.29,-36.82 16.36,-24.55 4.09,-53.2 0,-69.56 -94.11,-20.46 -53.2,8.19 -126.85,-4.09 -45.01,-12.29 -102.3,-8.19 -147.31,-4.1l-106.38 0c-4.09,-16.36 -4.09,-36.82 -4.09,-49.1 8.19,-61.37 -4.09,-20.46 20.46,-36.82 8.17,57.29 28.63,57.29 106.38,53.18 45.01,-4.09 32.74,0 49.1,-28.63l-49.1 -28.65 16.36 -24.55c32.74,20.46 61.39,61.39 73.66,98.21 57.29,-16.38 16.36,-20.46 57.29,-24.55 32.72,-4.1 20.45,0 53.18,-28.65l-24.55 -282.33c-8.19,-53.2 -12.27,-49.1 24.55,-61.37 4.09,49.1 0,94.11 0,143.21 0,28.63 0,40.91 16.36,61.37 8.19,8.19 8.19,8.19 20.46,20.46l16.38 16.36 -40.93 28.65 32.74 77.75 36.82 -16.38c-12.27,-147.31 -32.74,-16.36 -28.63,-229.15 4.09,-110.47 4.09,-135.02 53.18,-208.68 81.84,0 143.23,-20.45 163.67,-85.92 0,-16.36 0,-20.46 4.1,-36.82 12.27,-20.46 -4.1,0 20.45,-16.38l4.1 40.93c8.19,49.1 -12.27,20.46 0,77.75 36.82,12.27 527.84,49.1 568.77,-85.94 8.19,-81.84 -12.27,-225.04 -16.38,-310.98 -4.09,-81.84 4.1,-233.23 -32.72,-286.42 -122.76,-175.95 -687.44,110.47 -781.55,-135.04 -32.74,-94.11 -4.09,-781.54 -8.17,-920.66l-143.23 -53.2c-32.74,-16.36 -16.36,0 -28.63,-28.63 12.27,-8.19 0,-4.1 20.46,-4.1 0,0 4.09,4.1 4.09,0 4.09,0 8.19,4.1 8.19,4.1 94.11,12.27 49.1,12.27 126.83,-16.38 -8.17,-85.92 -61.37,-122.75 -139.11,-139.12 -36.84,-8.17 -208.68,-8.17 -249.61,0 -28.63,28.65 -16.36,40.93 -28.63,81.84 -20.46,53.2 -98.21,163.67 -130.95,216.87 -61.37,106.38 -171.86,212.77 -167.76,282.33l40.91 -16.36c4.1,40.93 -57.29,118.66 -102.28,130.93 0,0 0,-4.09 0,-4.09l-4.1 -16.36c-8.19,-20.46 12.27,0 -12.27,-12.29 -8.19,8.19 -24.55,-8.17 -8.19,69.56 90.02,-8.17 102.3,-65.46 163.67,-65.46l16.38 61.37 -49.1 -12.27c-4.1,69.56 -8.19,49.1 -65.48,85.92 -32.74,20.46 -53.2,36.84 -69.56,73.66z"/>
  <path class="fil0" d="M976.54 3070.11c-16.36,-24.55 -12.27,-28.63 0,-49.1 16.36,16.36 20.46,24.55 0,49.1zm65.48 -20.45c-45.01,-85.94 -20.46,-265.97 77.73,-294.62 36.84,45.01 36.84,94.11 32.74,159.59 -126.85,28.63 -65.46,69.56 -110.47,135.04zm-49.12 -110.49l8.19 61.37c0,0 0,4.1 4.09,8.19 -44.99,0 -40.91,8.19 -44.99,-36.82l-4.1 -32.74c-28.63,24.55 -4.09,-4.09 -20.45,28.63 -28.65,57.29 16.36,-16.36 -8.19,20.46 -12.27,-12.27 -12.27,20.46 -12.27,-24.55 4.09,-57.29 -12.27,-81.84 -8.19,-130.93 0,-40.93 12.27,-77.75 16.36,-118.66l12.29 -16.38c16.36,-16.36 -32.74,-16.36 20.45,-16.36l-4.09 135.02 32.74 -4.09 8.17 -24.55c20.46,32.74 -4.09,106.38 0,151.4zm-220.96 -135.04l32.74 -8.17c69.56,-16.38 40.93,-40.93 77.75,-77.75 0,53.2 12.27,126.85 -28.65,122.76 -28.63,-4.1 4.1,0 -12.27,-4.1 -24.55,-8.19 -8.17,-8.19 -36.82,-12.27l-32.74 -8.19c-28.63,-24.55 0,40.93 -8.17,-8.17 0,-4.1 4.09,-4.1 8.17,-4.1zm20.46 -53.18c28.65,36.82 4.1,28.63 0,32.74 -32.74,-32.74 0,-32.74 0,-32.74zm-478.74 24.55c-4.09,4.09 -36.82,45.01 -20.46,0l-12.27 -28.65 0 -73.65 20.46 0 20.46 -4.09c4.09,4.09 4.09,0 12.27,20.46 0,0 0,28.63 0,28.63 0,28.63 4.09,36.82 -16.38,49.1l-4.09 8.19zm679.24 -94.11c8.19,16.36 12.27,-20.46 12.27,36.82 4.1,57.29 -4.09,20.46 -12.27,32.74 -8.17,-16.38 -8.17,24.55 -12.27,-32.74 0,-57.29 8.19,-24.55 12.27,-36.82zm-683.32 -310.98c0,45.01 0,4.09 -8.19,24.55l-28.65 -16.36 28.65 -28.65c8.19,20.46 4.09,-16.36 8.19,20.46zm106.38 -90.02c-12.27,-24.55 -12.27,-28.63 0,-49.1 20.45,20.46 20.45,28.63 0,49.1zm-257.78 -45.01c24.55,-8.17 24.55,-8.17 49.1,0 -20.46,12.27 28.63,12.27 -28.65,12.27 -24.55,0 -8.17,-4.09 -20.45,-12.27zm85.92 -114.56c4.09,-36.84 16.36,-24.57 61.37,-40.93 36.82,-12.27 36.82,-24.55 69.56,4.09 -20.46,32.74 -85.92,57.29 -130.93,36.84zm159.59 -69.56l4.09 -28.65 20.46 4.09 98.2 -8.17 12.27 73.65c-24.55,-4.09 -53.18,-12.27 -73.65,-8.19 -8.19,0 -77.75,32.74 -61.37,-32.72zm-315.07 -36.84c16.36,0 12.27,-4.09 8.17,12.27 20.46,24.57 16.38,16.38 8.19,53.2 -40.93,0 -12.27,0 -20.46,-8.19l-24.55 -4.09c0,-16.36 0,-24.55 8.19,-36.82 8.17,-20.46 4.09,-8.19 20.46,-16.38zm507.38 -8.17c8.19,-8.19 12.27,-20.46 32.74,0 -24.55,12.27 -4.09,12.27 -32.74,0zm49.1 -20.46l36.84 0c-16.38,8.19 -16.38,12.27 -36.84,0zm147.31 -28.65l-24.55 4.1c-16.36,-49.1 0,-24.55 4.09,-32.74 12.27,0 16.38,0 28.65,4.09 0,0 4.09,4.1 8.19,4.1 0,-4.1 4.09,0 4.09,4.09 -8.19,20.46 4.09,12.27 -20.46,16.36zm-617.86 -53.18c-20.46,-36.82 -8.19,-36.82 16.36,-73.66l49.12 8.19c-12.27,45.01 -32.74,73.66 -65.48,65.48zm155.48 -118.66c12.27,0 12.27,-4.1 8.19,8.17l12.27 12.27c12.27,0 8.19,-4.09 8.19,8.19 12.27,0 8.17,-4.09 8.17,12.27l12.29 8.19c28.63,24.55 53.18,65.46 53.18,106.38 20.46,20.46 12.27,8.19 16.38,49.1l-36.84 16.38c-8.17,20.45 0,4.09 -20.45,20.45 -53.2,-36.82 -118.68,-32.72 -147.31,-102.28l118.66 36.82 -36.82 -163.67c-16.36,-8.19 -8.19,20.45 -16.36,-24.55l20.45 12.27zm171.86 -847.01c16.38,20.45 24.55,4.09 0,32.72 -32.74,-28.63 0,-28.63 0,-32.72zm-294.61 -12.27l0 40.91c-16.38,8.19 16.36,16.36 -20.46,4.09l4.09 -49.1c36.84,-12.27 4.1,-4.09 16.38,4.1zm413.27 -36.84l24.55 -16.36 0 40.91c-8.17,16.38 -8.17,16.38 -28.63,8.19 -12.27,-12.27 -4.09,4.1 -4.09,-20.46 0,-36.82 -8.19,0 8.17,-12.27zm-421.45 -16.36l8.19 28.63c-16.38,8.19 24.55,20.46 -20.46,4.1 -8.19,-53.2 4.09,-24.55 12.27,-32.74zm36.82 -69.56c8.19,20.46 16.38,8.19 0,36.82 -36.82,-28.63 -8.17,-24.55 0,-36.82zm-28.63 -12.27l4.09 24.55c-20.46,12.27 32.74,20.46 -24.55,8.19l4.09 -36.82c36.84,-12.27 4.1,-4.1 16.38,4.09zm143.21 -8.19l12.27 32.74c8.19,8.19 24.55,16.36 36.82,20.46 -4.09,12.27 0,24.55 -4.09,32.74 -4.09,24.55 0,4.09 -12.27,20.45 -36.82,24.55 -8.19,28.65 -32.74,65.48 -16.36,-28.63 -12.27,-98.2 -20.46,-135.04 -12.27,-69.56 -16.36,-53.18 -12.27,-122.75 0,-12.27 0,-24.55 4.1,-36.82 4.09,-24.55 -8.19,-8.19 12.27,-16.38l0 0c16.36,12.27 4.09,-8.17 12.27,16.38 4.09,12.27 0,20.45 4.09,32.72l0 8.19 0 36.82c0,16.38 0,28.65 0,45.01zm-85.92 -130.93c32.74,36.82 0,32.74 -4.1,32.74l4.1 -32.74zm114.57 -49.1l-16.38 0 -4.09 -28.65c12.27,-20.46 4.09,-24.55 32.74,-8.17 4.09,4.09 4.09,8.17 4.09,8.17 0,0 4.09,4.1 4.09,4.1 0,16.36 4.1,16.36 -8.17,16.36 8.17,20.46 12.27,16.36 -12.27,8.19zm-57.29 -98.21c-20.46,-24.55 -20.46,-81.84 4.09,-102.3l-4.09 102.3zm81.84 -53.18l16.36 -4.1 24.55 8.19 0 45.01 -40.91 -4.09 -36.84 -28.65 -8.17 -12.27c-4.1,-12.27 0,-4.09 -4.1,-20.46 36.84,4.1 28.65,-4.09 49.12,16.38zm220.96 -32.74c20.45,12.27 16.36,12.27 8.17,32.74 0,0 -4.09,4.09 -4.09,4.09 -4.09,0 -4.09,0 -8.19,0 -12.27,4.09 -12.27,4.09 -12.27,-8.19 -20.45,8.19 -16.36,12.27 -12.27,-8.17l4.1 -20.46 24.55 0zm339.62 -253.7l-4.09 4.09c-16.38,-16.36 -8.19,12.27 -16.38,-28.63 0,-4.09 4.1,-32.74 4.1,-36.82l16.36 4.09c20.46,0 16.36,-8.19 16.36,12.27l24.55 8.19c28.65,16.36 16.38,0 16.38,40.91 -32.74,-4.09 -8.19,0 -16.38,-12.27l-40.91 8.19zm-883.84 732.44c-28.65,-8.19 -20.46,-8.19 -57.29,-8.19l0 49.12 65.48 -8.19 20.45 -8.19 -4.09 53.2 -102.3 4.09c16.38,77.75 16.38,61.37 4.09,126.85 -8.17,36.82 12.29,61.37 0,135.04 -12.27,81.84 -4.09,225.04 -4.09,310.97 0,229.15 -16.36,384.65 45.01,593.33 57.29,-12.27 61.37,-20.46 126.85,-12.27 -4.09,44.99 -24.55,28.63 -61.37,53.18 -28.65,16.38 -32.74,28.65 -57.29,45.01 0,45.01 8.17,40.93 12.27,65.48 4.09,53.18 -32.74,12.27 16.36,167.76 32.74,106.38 110.49,257.78 175.95,343.72 126.85,175.95 49.12,90.01 188.24,204.58 126.83,110.49 597.4,274.16 662.88,253.7 40.91,-28.63 85.92,-57.29 110.47,-90.02 12.27,-98.2 -16.36,-360.08 -61.37,-425.54 20.46,-24.55 20.46,-12.27 45.01,-24.55 -12.27,-12.27 0,0 -16.38,-12.27 -53.18,-28.65 20.46,20.45 -12.27,-4.1 -24.55,-16.36 -12.27,4.1 -20.45,-28.63l16.36 -4.1c4.09,-4.09 4.09,12.29 12.27,-4.09 0,-4.09 0,-4.09 4.09,-4.09l-28.63 -45.01c28.63,-16.38 16.36,-8.19 28.63,-20.46l-4.09 -126.85c-61.37,-20.46 -180.05,-81.84 -216.87,-114.57 -49.1,-45.01 -36.82,-45.01 -69.56,-106.38 -36.82,-69.56 -81.84,-45.01 -98.2,-69.56l65.48 -20.46c12.27,-98.2 -28.65,-171.84 -32.74,-253.68 0,-110.49 28.63,-143.23 4.09,-257.8 -8.19,-49.1 -20.46,-77.73 -16.36,-130.93 28.63,-249.59 -53.2,-437.83 49.1,-621.97 32.74,-53.18 16.36,-40.91 81.84,-65.46 81.84,-32.74 200.5,-98.21 204.6,-204.6 0,-94.11 0,-188.22 0,-282.33 0,-261.89 16.36,-343.72 -225.06,-294.62 -81.84,20.46 -155.48,28.65 -237.32,45.01 -53.2,8.19 -225.06,126.85 -261.89,163.67 -106.38,98.21 -85.92,61.39 -200.5,212.79 -16.38,20.46 -16.38,24.55 -28.65,45.01 -61.37,85.92 -143.21,220.96 -163.67,319.15l49.12 16.38c0,49.1 0,44.99 -8.19,40.91z"/>
  <path class="fil0" d="M1799 3098.76c20.46,24.55 20.46,8.17 8.19,45.01 -24.57,-16.38 -16.38,4.09 -20.46,-20.46 -4.1,-32.74 -8.19,-8.19 12.27,-24.55zm466.47 -687.43l-32.74 0c0,0 -4.09,-8.19 -4.09,-4.1 0,0 0,-4.09 0,-8.19 4.09,-24.55 -12.27,-4.09 8.19,-16.36l36.82 0c28.63,-8.19 12.27,12.27 4.09,20.46 8.19,24.55 8.19,16.36 -12.27,8.19zm261.89 -85.94c28.63,-196.41 -4.1,-245.51 -310.98,-261.87 -135.04,-4.1 -53.2,24.55 -282.33,4.09 -208.68,-20.46 -147.31,90.02 -274.16,306.88 -36.82,61.39 -12.27,32.74 -81.84,61.39 -147.31,61.37 -180.05,110.47 -180.05,253.7 0,94.11 0,192.31 0,290.52 0,114.56 -12.27,171.84 61.39,233.23 147.29,130.93 621.95,-102.3 724.25,-216.87 28.65,-32.74 40.93,-49.1 65.48,-81.84 16.36,-16.38 16.36,-24.55 32.74,-45.01 118.66,-155.48 212.77,-335.53 245.51,-544.22z"/>
  <path class="fil0" d="M2077.25 1097.84c-36.82,20.46 -118.66,20.46 -130.93,4.1 -12.27,-8.19 -12.27,0 4.09,-8.19 8.19,-12.27 0,-8.19 28.63,-12.27 73.66,-12.27 61.39,-32.74 143.23,-12.27 57.29,12.27 24.55,-4.09 40.91,24.55l-85.92 4.09zm282.33 -327.34c4.1,8.19 8.19,4.1 12.27,24.55 0,0 0,12.27 0,16.38 0,12.27 0,28.63 0,40.91 0,4.1 0,36.82 0,36.82 -4.09,40.93 4.1,20.46 -12.27,28.65l-8.19 0c-12.27,-8.19 -12.27,28.63 -12.27,-24.55 0,-45.01 -16.36,-90.02 20.46,-122.76zm-94.11 -4.09c0,49.1 4.09,0 -12.27,20.46 0,-4.1 -28.63,0 0,-49.12 4.09,4.1 12.27,-16.36 12.27,28.65zm-540.11 -163.67c-24.57,-8.19 -24.57,-8.19 -36.84,-32.74 45.01,-4.09 32.74,-12.27 36.84,32.74zm57.27 -65.48c24.57,16.36 16.38,0 20.46,32.74 -36.82,-4.09 -45.01,-4.09 -20.46,-32.74zm-380.53 45.01l-12.27 0 -8.19 -12.27c-4.09,-16.38 -8.19,-73.65 8.19,-102.3 49.1,-4.09 16.36,-4.09 28.63,12.27l12.27 94.11 -28.63 8.19zm306.88 -171.86l-45.01 -12.27 4.1 -32.74c32.72,4.1 16.36,4.1 28.63,16.38l12.27 -4.1 45.01 4.1c4.09,36.82 0,8.17 -8.19,20.45 -12.27,8.19 8.19,12.27 -36.82,8.19zm319.17 -20.46l-69.56 4.1 0 -36.82 24.55 -8.19c0,-12.27 -4.1,-8.19 12.27,-8.19l8.19 -12.27 12.27 -28.63 16.36 16.36 24.55 4.09c12.27,-4.09 12.27,-8.17 8.19,8.19 16.36,0 12.27,-4.09 8.19,12.27 16.36,36.82 16.36,40.93 -20.46,49.1 -16.38,4.1 -16.38,0 -24.55,0zm-626.05 -69.56c-4.1,110.49 73.65,69.56 126.85,106.4 -16.38,28.63 4.09,24.55 -45.01,24.55 -49.1,0 -102.3,-24.55 -114.57,-81.84 -4.09,-4.1 -12.27,12.27 -12.27,-28.65 0,-28.63 8.19,-24.55 12.27,-32.74 65.48,-8.17 24.55,0 32.74,12.27zm77.73 -32.72c16.38,-4.1 12.27,-8.19 12.27,8.17l16.38 16.38c-32.74,16.36 -16.38,16.36 -40.93,0 -16.36,4.09 -12.27,4.09 -12.27,-8.19l0 -20.46 24.55 4.1zm-147.29 122.75c0,0 20.45,16.38 24.55,20.46 12.27,12.27 4.09,4.09 12.27,16.36 -16.38,28.65 -8.19,8.19 -20.46,20.46l-12.27 8.19c20.46,139.12 24.55,245.51 163.67,310.98 106.38,53.18 69.56,8.17 126.85,114.56 69.56,126.85 98.21,167.78 229.15,241.42 69.56,40.93 122.75,32.74 212.77,20.46 163.67,-24.55 356,73.65 401.01,-53.2 -16.38,8.19 -12.27,-4.09 -20.46,8.19 -16.36,4.09 -12.27,8.19 -12.27,-8.19 -53.2,-32.72 -143.21,-20.45 -220.96,-20.45 8.19,-20.46 -4.09,-8.19 20.46,-16.38l229.13 -40.91 28.65 -8.19 4.09 -28.63c-16.36,-61.39 -28.63,-126.85 -49.1,-188.24 -16.36,-61.37 -45.01,-110.47 -61.37,-171.84l-53.2 12.27c4.09,-69.56 40.93,-61.39 -53.18,-175.96 -135.04,-163.67 -237.34,-253.68 -441.94,-339.62 -135.02,-53.18 -556.49,-249.59 -515.56,36.82 12.27,85.94 4.09,155.5 8.19,241.42z"/>
  <path class="fil0" d="M4438.23 709.12l85.94 -32.74 0 65.48 -69.56 4.09c0,4.09 -4.1,4.09 -4.1,4.09 -8.17,12.27 -28.63,4.1 -28.63,4.1 0,-61.39 0,-28.65 16.36,-45.01zm110.49 -36.82l4.09 -12.27 0 -16.38c-12.27,-12.27 -16.36,20.46 -4.09,-20.46l24.55 -4.09 16.36 -4.09c-4.09,-16.38 -8.17,-12.27 4.1,-12.27l8.17 -20.46 45.01 16.36c-12.27,65.48 0,-24.55 -73.65,106.4 -20.46,-8.19 -20.46,-4.1 -24.55,-32.74zm135.02 -90.02l-12.27 28.63c-16.36,-12.27 -16.36,24.57 -12.27,-28.63 40.93,-24.55 16.38,-4.09 24.55,0zm-417.35 -8.19c-28.65,32.74 -24.57,49.1 -28.65,94.11l-45.01 -24.55c-8.19,-8.17 -8.19,-8.17 -12.27,-12.27 32.74,-81.84 69.56,-90.02 143.21,-90.02 65.48,0 49.12,-12.27 53.2,32.74l-110.47 0zm135.02 -32.74l28.65 4.1 61.37 -4.1 4.09 20.46 -28.63 0 -53.2 8.19c-16.36,0 -12.27,4.09 -8.19,-12.27 -12.27,0 -8.17,4.09 -8.17,-8.19 0,0 0,-4.09 0,-4.09 0,0 0,-4.1 4.09,-4.1zm286.43 16.38c-16.38,8.19 28.63,16.36 -24.55,4.09 -4.1,-32.74 -8.19,-90.02 4.09,-114.57 -8.19,-32.74 16.36,-4.09 20.46,0 32.74,20.46 28.63,24.55 40.91,65.48 -28.63,32.74 -28.63,8.19 -40.91,45.01zm-249.61 -69.56c0,0 -20.45,0 -20.45,-49.1 4.09,-24.57 12.27,-36.84 20.45,-45.01 12.27,24.55 12.27,69.56 0,94.11zm229.15 -175.95c8.19,-8.19 -4.09,-20.46 16.36,-4.1 0,4.1 0,8.19 4.1,8.19 8.19,24.55 8.19,12.27 0,61.37 -45.01,8.19 -8.19,4.1 -20.46,-8.17l0 -57.29zm-409.18 -77.75c-40.93,49.1 -61.37,12.27 -61.37,12.27 4.09,-16.36 12.27,-20.46 32.72,-24.55 57.29,-4.09 16.38,4.09 28.65,12.27zm450.11 -28.65l-4.1 32.74c-40.91,16.38 -8.17,8.19 -16.36,-4.09l4.09 -106.38 40.93 12.27c-8.19,32.74 -16.38,28.63 -24.55,65.46zm-540.13 -94.11c53.2,12.27 61.37,-8.17 98.21,-4.09 44.99,8.19 12.27,32.74 0,65.48l-106.4 -53.2 -12.27 -24.55 20.46 16.36zm470.57 642.43c-12.27,-12.27 -8.19,0 -16.38,-16.38 -4.09,-8.17 -8.19,-20.45 -8.19,-32.72l53.2 -4.1 4.09 65.48 4.1 32.74c147.29,-4.1 274.14,-16.38 278.25,-171.86l-40.93 12.27c-61.37,-94.11 -102.3,81.84 -229.15,85.92 8.19,-24.55 12.29,-167.76 130.95,-180.03 8.17,4.09 8.17,8.17 12.27,12.27 4.09,4.09 12.27,12.27 12.27,12.27 0,-4.09 4.09,4.09 4.09,4.09 98.21,-94.11 85.94,-159.59 81.84,-327.34 -4.09,-126.85 -69.56,-212.77 -204.58,-204.6 0,85.94 0,57.29 -20.46,65.48 -16.38,-24.55 -12.27,-28.63 -12.27,-65.48 -90.02,-8.17 -233.23,-8.17 -323.26,-4.09 -122.76,4.09 -163.67,32.74 -298.71,20.46 -270.06,-20.46 -261.87,40.91 -265.97,360.08 0,245.51 -49.1,413.27 253.7,380.55 36.82,-4.1 106.38,-16.38 139.12,-20.46 8.19,0 405.09,40.91 441.92,8.19 4.1,-4.1 4.1,-8.19 8.19,-20.46 0,0 0,-4.1 0,-4.1 0,-4.09 -4.09,-4.09 -4.09,-8.17z"/>
  <path class="fil0" d="M2834.23 164.9l-4.09 257.78c0,-4.09 12.27,-8.19 16.36,-12.27l12.27 -8.19c24.55,-28.63 45.01,-57.29 69.56,-81.84 28.65,-36.82 40.93,-53.18 65.48,-85.92 40.91,-53.2 118.66,-126.85 135.02,-171.86 0,-45.01 4.1,-16.36 -12.27,-36.82 -57.29,0 -151.4,-8.19 -196.39,8.19 -45.01,16.36 -81.85,69.56 -85.94,130.93z"/>
  <path class="fil0" d="M3124.75 1159.23l-73.65 4.09 0 -53.2 -171.86 0c0,0 0,-4.09 0,-4.09l-8.19 -16.36c0,0 0,-4.1 0,-8.19l-36.82 -16.36c-4.09,-4.1 -4.09,4.09 -8.19,4.09l36.84 -4.09c0,36.82 -4.1,36.82 4.09,57.27l184.14 -4.09c-8.19,53.2 0,4.09 -16.38,49.1 12.27,4.1 36.84,8.19 49.12,8.19 8.17,0 8.17,0 16.36,0 24.55,-8.19 12.27,-4.09 24.55,-16.36z"/>
  <path class="fil0" d="M3026.56 1044.65c-237.34,4.09 -204.6,20.46 -204.6,-139.12 -8.19,16.36 -4.09,4.09 -8.19,32.74 -20.45,143.21 40.93,114.56 184.14,114.56 45.01,0 20.46,0 28.65,-8.17z"/>
  <path class="fil1" d="M8120.9 3066.02c4.09,4.09 20.45,-4.09 20.45,28.63 -4.09,45.01 -12.27,20.46 -16.36,24.57l-4.09 -53.2zm-531.94 -85.92c8.17,-16.38 -16.38,-8.19 16.36,-16.38 16.38,28.65 16.38,0 8.19,40.93l-32.74 4.09c-4.09,-53.2 -4.09,-16.36 8.19,-28.63zm339.62 -4.1c-12.27,28.65 -16.36,40.93 -61.37,36.82l0 -57.29c4.09,-32.72 -4.1,-16.36 12.27,-24.55 -12.27,-40.91 20.46,0 20.46,0l28.63 0 24.55 4.1c-4.09,16.36 0,12.27 -8.19,24.55 -8.17,16.36 -4.09,8.17 -16.36,16.36zm-376.44 -45.01c4.09,0 -8.19,-8.17 16.36,-8.17 53.2,-4.1 12.27,-4.1 32.74,8.17 -12.27,36.82 8.19,20.46 -36.82,28.65l-85.94 12.27 16.38 -49.1 57.29 8.17zm605.59 28.65l-12.27 36.82c-24.55,45.01 16.36,-8.19 -4.1,24.55 -28.63,-8.19 -16.36,0 -28.63,-20.46 -4.09,-45.01 -4.09,-53.18 24.55,-81.84l12.27 -12.27c-4.09,-16.36 -8.19,-12.27 8.19,-12.27l12.27 -12.27 -4.09 49.1c8.17,49.12 4.09,16.38 -8.19,28.65zm-482.84 -126.85c8.19,20.46 16.38,8.19 0,36.82 -8.19,-4.09 -16.36,12.27 -12.27,-16.36 4.09,-24.57 0,-8.19 12.27,-20.46zm331.45 -40.93l4.09 16.38c-8.19,36.82 4.09,12.27 -20.46,28.63 -16.36,-32.74 -16.36,-45.01 0,-73.65 36.84,8.19 40.93,0 16.38,28.63zm-343.72 -16.36l8.19 -12.27c-8.19,-16.38 -8.19,-12.27 12.27,-8.19l28.63 -8.19 -8.17 24.57 -28.65 28.63c-16.36,-12.27 -8.19,0 -12.27,-24.55zm491.02 -36.82c20.46,-8.19 20.46,-12.27 12.29,8.17l16.36 20.46 -20.46 28.65 -40.91 106.38c-36.84,-4.1 -45.01,-4.1 -49.12,-40.93 -8.17,-36.82 0,-49.1 16.38,-69.56l8.19 -16.36 0 -20.46 -8.19 -24.55c36.82,-4.09 36.82,-12.27 65.46,8.19zm-257.78 -53.2c16.38,24.55 8.19,12.27 0,32.74 -4.09,-4.09 -36.82,-4.09 0,-32.74zm-126.85 16.38l12.27 -12.27c8.19,-12.29 -20.45,-16.38 12.27,-8.19l0 24.55 -12.27 12.27c-24.55,-12.27 -8.17,4.09 -12.27,-16.36zm290.52 -69.56c8.19,12.27 8.19,-20.46 8.19,20.45 4.09,53.2 0,16.38 -8.19,28.65 -8.17,-4.1 -16.36,-4.1 -20.45,-24.55 -8.19,-36.82 0,-16.38 20.45,-24.55zm-204.58 -49.12l45.01 0c-8.19,36.84 -20.46,53.2 -45.01,65.48 8.17,-45.01 8.17,-16.36 0,-65.48zm351.89 -28.63l0 12.27 -8.19 12.27c-28.63,12.27 -32.72,0 -32.72,0l4.09 -32.74c65.46,-16.36 20.46,-4.09 36.82,8.19zm-253.7 12.27c-8.19,-12.27 -12.27,16.36 -8.19,-32.74 28.65,-24.55 49.12,-16.36 49.12,32.74l-32.74 12.27 -8.19 -12.27zm-212.77 -49.1c32.74,16.36 28.63,-4.1 32.74,28.63 8.17,36.82 -16.38,24.55 -28.65,28.65 -8.19,-16.38 -4.09,12.27 -8.19,-20.46l4.1 -28.65c0,0 0,-4.09 0,-8.17zm-73.66 16.36c0,28.65 -4.09,53.2 8.19,77.75 12.27,36.82 20.46,32.74 57.29,28.63l0 69.56 -85.92 -12.27 4.09 -180.03 12.27 -28.65c16.38,-16.36 -24.55,-12.27 20.46,-12.27 4.09,49.1 0,20.46 -8.19,32.74l4.1 8.19c0,20.45 8.17,16.36 -12.29,16.36zm85.94 -106.38c4.09,32.74 4.09,28.63 0,57.29 -8.19,40.91 8.19,20.46 -28.65,36.82 0,-20.46 4.1,-12.27 0,-40.91l4.1 -16.38c-32.74,-32.74 -20.46,-49.1 16.36,-65.48l8.19 28.65zm-69.56 -12.27c-4.09,32.74 -4.09,49.1 -36.82,24.55 8.17,-28.63 12.27,-20.46 36.82,-24.55zm-28.65 -81.84c65.48,20.46 45.01,61.37 8.19,53.18 -8.19,-8.17 -8.19,-4.09 -12.27,-24.55 0,-4.09 4.09,-20.45 4.09,-28.63zm-167.76 0c8.19,-24.55 -8.19,-8.19 12.27,-20.46 16.36,12.27 12.27,-12.27 16.36,16.36 -8.17,49.12 -4.09,24.57 -20.45,36.84l-8.19 -32.74zm642.41 20.46c0,0 0,4.09 0,8.17l-28.63 12.27 -8.19 -28.63c0,-40.93 -4.09,-102.3 12.27,-143.21 16.38,8.17 8.19,-20.46 20.46,24.55 12.27,49.1 4.09,98.2 4.09,126.85zm-617.86 -376.46c4.09,40.93 0,8.19 -12.27,16.38 -12.27,-20.46 -12.27,-12.27 0,-32.74 12.27,12.27 8.19,-16.38 12.27,16.36zm90.02 -61.37c-40.93,-16.38 -12.27,4.09 -24.55,-24.55 24.55,-12.27 16.36,8.17 69.56,-8.19l0 40.93c-8.19,-4.1 -40.93,-8.19 -45.01,-8.19zm-94.11 -61.37l20.46 -4.1 0 16.38c-8.19,12.27 24.55,20.45 -36.84,12.27 4.1,-36.82 0,-12.27 16.38,-24.55zm20.46 -69.56c12.27,-8.19 -20.46,-12.27 28.63,-8.19 36.82,0 8.19,0 20.46,8.19 -12.27,8.17 24.55,12.27 -28.65,12.27 -49.1,-4.1 0,4.09 -20.45,-12.27zm617.86 -180.05l8.17 16.36 0 8.19 0 16.38c-16.36,-4.1 -4.09,-4.1 -12.27,-12.27 -12.27,4.09 -12.27,8.17 -12.27,-8.19 -12.27,0 -8.17,4.09 -8.17,-8.19l-12.27 -8.19c-12.27,0 -8.19,0 -8.19,-12.27l12.27 -32.72c32.74,8.17 20.46,-8.19 32.74,40.91zm24.55 -90.02l-8.19 20.46c-57.29,16.36 -28.63,0 -28.63,0l4.09 -28.63c61.37,-8.19 12.27,-4.1 32.74,8.17zm-560.58 -36.82c-8.19,-8.19 -20.46,4.1 -16.38,-40.91 0,-57.29 0,-16.38 12.27,-28.65 12.27,28.65 8.19,40.93 4.1,69.56zm-302.81 -110.47l4.1 -94.11 24.55 0c20.46,20.45 12.27,81.84 8.19,110.47 -57.29,-4.09 -20.46,0 -36.84,-16.36zm-155.48 -130.95l-4.09 -4.09c-8.19,12.27 8.17,12.27 -24.55,8.19 -12.27,16.36 24.55,8.17 -24.57,16.36 -12.27,-12.27 -16.36,24.55 -12.27,-28.63 0,-45.01 0,-12.27 12.27,-20.46 -8.17,-20.46 -12.27,-12.27 8.19,-12.27l32.74 -4.1c12.27,-12.27 4.09,-16.36 12.27,-4.09l28.65 8.19c-8.19,-20.46 -16.38,-20.46 8.17,-16.38 40.93,12.27 40.93,4.1 53.2,36.84 -24.55,16.36 -12.27,8.17 -49.1,12.27 -16.38,4.09 -12.27,4.09 -8.19,-12.27l-32.74 20.45zm932.93 -98.2c0,-53.2 8.19,-20.46 12.29,-28.65 12.27,28.65 12.27,32.74 0,61.39 -8.19,-12.27 -12.29,24.55 -12.29,-32.74zm-139.12 32.74c-20.45,-36.82 -8.17,-45.01 -4.09,-85.94 0,-4.09 0,-4.09 4.09,-4.09 24.57,8.19 28.65,-8.19 16.38,49.1l-16.38 40.93zm-4.09 -126.85c12.27,-8.19 -20.46,-16.38 24.55,-4.1 -4.09,12.27 -12.27,24.57 -20.46,36.84l-4.09 -32.74zm-613.78 -69.56c12.27,16.36 8.19,0 8.19,32.74 4.09,77.73 0,126.85 -4.09,200.5l-12.27 16.36c-16.38,4.1 -24.57,4.1 -40.93,4.1 -24.55,-8.19 -8.19,4.09 -20.46,-16.38 12.27,-49.1 12.27,-65.46 49.1,-90.02 -12.27,-73.65 -12.27,-40.91 8.19,-106.38l0 -20.45c0,0 -4.09,-20.46 -4.09,-20.46 0,-20.46 4.09,-12.27 8.19,-20.46l8.17 20.46zm405.09 28.63c16.38,-24.55 -12.27,-4.09 36.82,-16.36l126.85 -40.93c53.2,-36.82 45.01,-98.2 57.29,-143.21l8.19 -12.27c24.55,49.1 12.27,65.48 49.1,118.66 -8.19,36.82 -24.55,57.29 -45.01,77.75 -28.63,-24.55 -12.27,-16.38 -32.74,-45.01 -32.72,20.46 -61.37,45.01 -81.84,73.65 -65.46,-16.36 -73.65,0 -98.2,0 -28.65,-4.09 -4.09,4.1 -20.46,-12.27zm-376.44 -143.21c24.55,-12.27 12.27,-12.27 36.82,0 -8.19,8.19 4.09,8.19 -16.38,8.19 -36.82,4.09 -12.27,0 -20.45,-8.19zm-339.64 -77.75c20.46,16.38 20.46,8.19 24.57,40.93 -4.1,0 -28.65,8.17 -32.74,8.17 -24.55,-4.09 -4.1,0 -16.38,-12.27l-12.27 4.1 0 -40.93 36.82 0zm274.16 12.27c28.65,-16.36 12.27,-12.27 36.82,0 -12.27,12.27 4.1,8.19 -20.46,12.27 -32.72,4.1 -8.17,-4.09 -16.36,-12.27zm257.78 -135.02c8.19,8.17 12.27,-24.55 8.19,28.63 -32.74,24.55 -57.29,16.38 -53.2,-36.82 45.01,-12.27 36.84,0 45.01,8.19zm53.2 -45.01c4.09,-49.1 -12.27,-24.55 45.01,-40.93l0 45.01 -45.01 -4.09zm364.17 -45.01c12.27,-8.19 -4.09,-12.27 24.55,-12.27 57.29,-4.1 4.1,-4.1 28.65,16.36 4.09,69.56 4.09,12.27 -20.46,32.74l-24.55 -16.36c-4.09,-4.1 -4.09,-8.19 -8.19,-8.19 0,0 0,-4.09 0,-8.19 0,0 0,-4.09 0,-4.09zm-781.54 -49.1c8.19,20.45 16.36,20.45 0,49.1 -4.09,-4.09 -16.38,16.36 -12.27,-28.65 0,-53.18 -4.1,0 12.27,-20.45zm-118.66 32.72l4.09 32.74 -61.37 -24.55c8.17,-8.19 -12.27,-8.19 24.55,-16.36 49.1,-12.27 16.36,0 32.74,8.17zm548.3 -65.46c8.19,-8.19 -16.38,-32.74 32.74,-12.27 -16.38,12.27 24.55,12.27 -32.74,12.27zm376.44 -118.66c4.1,4.09 16.38,-12.27 16.38,36.82 -4.1,45.01 -12.27,24.55 -16.38,28.63 -12.27,-24.55 -12.27,-40.91 0,-65.46zm-446 57.29c16.36,-8.19 -28.65,-12.29 32.74,-8.19 40.91,0 8.17,0 20.45,8.19 -44.99,28.63 -44.99,4.09 -53.18,0zm-85.92 0c12.27,-4.1 0,-4.1 20.45,-4.1l12.27 4.1c-8.17,8.17 0,8.17 -16.36,8.17 -4.09,0 -8.19,0 -8.19,-4.09 0,0 -4.09,0 -8.17,-4.09zm-45.01 12.27l-24.55 61.37c-28.65,-24.55 -4.1,-36.82 -4.1,-36.82 0,-4.1 4.1,-4.1 4.1,-8.19 -20.46,4.09 -69.56,16.36 -65.48,4.09 20.46,-4.09 16.36,-8.17 8.19,16.38l-4.1 28.63c-24.55,4.1 -20.46,4.1 -45.01,8.19l-53.18 28.63 -20.46 -36.82c-4.09,-12.27 -8.19,-16.36 -16.36,-28.63 -16.38,-20.46 -32.74,-36.82 -45.01,-57.29 40.91,-85.94 53.18,-69.56 69.56,-73.66 12.27,0 16.36,-4.09 20.45,-8.17 20.46,24.55 36.84,69.56 61.39,94.11 24.55,-16.38 12.27,-8.19 28.63,-12.27 -4.09,-20.46 -12.27,-16.38 8.19,-12.27 -4.09,-20.46 -12.27,-16.38 8.19,-8.19 -12.27,-24.55 -8.19,-16.36 16.36,-8.19 40.93,-8.17 24.55,-20.45 81.84,-20.45 -12.27,32.72 0,0 -12.27,24.55 -32.74,45.01 4.09,12.27 -16.36,45.01zm77.73 -175.96c4.1,-4.09 4.1,-8.17 8.19,-8.17 0,0 0,-4.1 0,-4.1 16.36,-12.27 12.27,-8.17 8.19,4.1l16.36 28.63c4.1,8.19 28.65,32.74 -4.09,32.74 -16.38,28.63 4.09,16.36 -40.93,16.36 16.38,-36.82 12.27,-20.45 12.27,-69.56zm-220.96 69.56c-8.17,-12.27 -8.17,8.19 -16.36,-28.63 -4.09,-28.65 0,-61.37 16.36,-81.84 40.93,24.55 4.1,0 12.27,57.29 8.19,40.91 20.46,32.74 -12.27,53.18zm40.93 -143.21c-4.1,-16.36 -4.1,-8.19 16.36,-4.09l12.27 -4.1c-16.36,-16.36 12.27,-12.27 -20.45,-20.45l53.18 16.36 20.46 20.46c-16.38,32.74 -32.74,40.91 -73.65,20.46 -61.39,-24.57 12.27,40.91 -12.29,-12.29 -12.27,-24.55 -16.36,-20.45 4.1,-16.36zm196.41 -28.63l0 -4.1c20.46,-12.27 -20.46,-4.09 20.46,-8.17 36.82,-4.1 12.27,4.09 24.55,8.17 -8.19,45.01 -12.27,36.82 -57.29,28.65 -4.1,-40.93 -4.1,-12.27 12.27,-24.55zm-306.9 44.99c0,20.46 4.1,20.46 -12.27,16.38l0 49.1c16.38,16.38 20.46,20.46 12.27,40.93 -16.36,4.09 0,-4.1 -28.63,-20.46 4.09,16.36 8.19,12.27 -8.19,12.27l-85.92 118.66 -32.74 53.2c0,0 -4.09,4.09 -4.09,4.09l-114.57 159.59c-118.68,184.14 -130.95,225.04 -61.39,405.09 24.55,65.46 65.48,130.93 130.95,143.21l24.55 0 0 20.46c-4.1,69.56 -4.1,81.84 28.63,130.93 12.27,8.19 8.19,-8.19 16.38,28.65l49.1 61.37c4.09,0 8.19,4.09 12.27,4.09l32.74 28.65c12.27,-36.82 4.09,-12.27 -8.19,-53.2 0,-8.19 0,-24.55 0,-28.63 4.09,-20.46 4.09,-12.27 12.27,-24.55 24.55,12.27 16.38,4.09 32.74,32.72 0,8.19 4.09,8.19 0,24.57 0,16.36 -16.36,16.36 -4.09,44.99 32.72,16.38 -12.27,-24.55 4.09,8.19 8.19,12.27 12.27,12.27 0,12.27 4.09,20.46 8.19,16.38 -12.27,16.38l-8.19 8.17c4.1,32.74 77.75,130.95 106.38,171.86 28.65,45.01 77.75,135.04 94.11,188.22 49.12,163.67 -20.45,564.68 45.01,789.73 40.93,147.31 -36.82,519.67 98.21,585.14 143.21,69.56 98.2,-57.29 102.3,-69.56 8.17,-20.46 20.45,-20.46 24.55,-65.48 4.09,-57.29 -8.19,-110.47 -8.19,-167.76 -12.27,-16.38 -20.46,24.55 -12.27,-32.74 32.74,4.09 24.55,8.19 53.2,12.27 12.27,8.19 4.09,8.19 8.17,24.55 4.1,65.48 4.1,126.85 8.19,192.32 32.74,36.82 24.55,4.09 24.55,49.1 -12.27,0 -94.11,-8.19 -73.65,53.18 16.36,40.93 81.84,12.27 102.3,0 16.36,-12.27 16.36,-12.27 28.63,4.1 65.48,16.36 28.63,8.17 98.2,12.27 20.46,0 69.56,4.09 106.4,4.09 126.85,0 102.28,-16.36 147.29,-24.55 24.55,0 4.1,8.19 36.84,0 40.91,-32.74 49.1,-122.76 57.27,-192.32 -20.45,-12.27 -16.36,-4.09 -32.72,-8.17 -4.1,-65.48 -4.1,-4.1 8.17,-32.74 77.75,-81.84 -77.73,-110.49 36.82,-200.5l-12.27 -20.46 -40.91 -8.19c12.27,-77.73 16.36,8.19 53.18,-102.3 0,0 4.1,-4.09 4.1,-4.09 8.19,-20.46 8.19,-16.36 12.27,-24.55l-4.09 -16.36c0,-28.65 4.09,-57.29 4.09,-85.94 0,-45.01 -4.09,-49.1 -49.1,-40.91l0 28.63c-16.38,16.36 24.55,20.46 -16.38,12.27 -4.09,-28.63 -12.27,-40.91 -16.36,-73.65l4.09 -28.65c-16.36,-8.17 -16.36,-8.17 -45.01,-12.27l0 0c-8.17,12.27 -4.09,8.19 -12.27,16.38 -4.09,4.09 -12.27,8.17 -12.27,8.17 -16.36,12.27 -16.36,12.27 -32.74,20.46l0 4.09c-20.45,24.57 -8.17,20.46 -44.99,32.74 20.45,-45.01 16.36,-20.45 44.99,-49.1l57.29 -57.29c4.1,-4.09 4.1,-4.09 8.19,-4.09l45.01 -73.66 8.19 -36.82c20.45,12.27 16.36,-12.27 24.55,32.74l24.55 0c0,-94.11 -12.27,-212.77 -77.75,-245.51 -36.82,-8.19 -24.55,0 -45.01,0 -32.74,0 -233.23,-32.74 -249.59,98.2 -16.38,16.38 28.63,24.55 -20.46,12.27l0 -53.18 -36.82 -28.65 -77.75 -53.18 -40.91 -16.38c24.55,-24.55 53.18,-20.45 114.56,-20.45 90.02,0 167.78,-32.74 249.61,-12.27l12.27 -28.65c16.36,-24.55 20.46,-24.55 32.74,-49.1l4.09 -16.38c-4.09,-12.27 -4.09,-12.27 -12.27,-28.63l4.1 -8.19c-16.38,0 -12.29,4.1 -12.29,-12.27l-8.17 0 -28.65 -8.17c-4.09,-65.48 -4.09,-16.38 12.27,-32.74l122.76 12.27c4.09,0 8.19,4.09 8.19,0 0,-4.1 4.09,-4.1 8.17,-4.1 12.27,-32.72 8.19,-94.11 8.19,-139.12 -4.09,-69.56 -24.55,-44.99 -36.82,-106.38 12.27,-28.63 28.63,-36.82 32.74,-65.46 12.27,-53.2 0,-425.56 -8.19,-474.66 -4.09,-36.82 8.19,-130.95 12.27,-171.86 -53.2,-8.19 -40.91,-16.36 -40.91,-85.92 0,-36.84 0,-77.75 0,-114.57 0,-77.75 -12.29,-163.67 -4.1,-237.34 8.19,-69.56 0,-139.12 0,-204.58 -8.19,-233.25 -57.29,-216.87 -380.55,-216.87 -192.31,0 -351.89,-20.46 -495.1,106.38l-85.94 98.2z"/>
  <path class="fil1" d="M9242.06 2083.97c32.74,16.38 40.93,32.74 49.1,77.75 -32.72,-4.09 -32.72,0 -49.1,-24.55 -16.36,-24.55 -12.27,-32.74 0,-53.2zm589.23 -20.45c-28.63,-8.19 -12.27,8.17 -24.55,-20.46 16.36,-28.65 0,-4.1 28.63,-16.38l4.1 4.1 -4.1 -16.38c12.27,4.1 20.46,12.27 36.84,28.65 -28.65,53.18 -40.93,20.46 -40.93,20.46zm57.29 -454.21c28.63,12.27 12.27,-8.17 20.46,24.57l16.36 40.91c-65.48,8.19 -98.2,32.74 -139.12,40.93l-155.48 -16.38c12.27,-32.74 -4.1,-12.27 24.55,-32.74 36.82,-28.63 85.92,-36.82 126.85,-28.63 24.55,-40.93 45.01,-24.55 106.38,-28.65zm-384.63 16.38c40.91,0 20.46,-12.27 65.46,-16.38 12.27,20.46 16.38,28.65 20.46,49.12l20.46 -53.2c4.09,0 8.19,-4.09 8.19,-4.09 0,4.09 4.09,0 4.09,0 4.09,4.09 4.09,4.09 8.19,8.17 12.27,8.19 12.27,-28.63 12.27,20.46 -16.38,12.27 -8.19,8.19 -20.46,16.38 0,0 -4.09,4.09 -4.09,4.09 -4.1,4.09 -4.1,4.09 -8.19,8.19 0,0 -4.09,4.09 -4.09,4.09l-32.74 73.65 -53.2 -40.91c-28.63,8.19 -24.55,12.27 -16.36,-12.27l-8.19 -4.1 -32.74 0c0,4.1 -8.17,8.19 -8.17,8.19 0,0 -4.1,4.09 -4.1,4.09 -4.09,0 -4.09,4.1 -8.17,4.1 -16.38,-32.74 -8.19,-57.29 8.17,-85.94l0 20.46 53.2 -4.09zm-65.48 -159.59c16.38,-12.27 -20.46,-16.36 24.55,-8.19 0,8.19 4.1,28.65 4.1,36.84 -8.19,53.18 0,16.36 -16.38,32.72 -24.55,-20.45 -28.63,-32.72 -12.27,-61.37zm609.69 -53.18l-8.19 32.72 0 28.65c-45.01,8.19 -4.09,4.09 -20.46,-8.19l4.1 -81.84c0,-20.46 -8.19,-16.36 12.27,-8.19l32.72 -8.17 -8.17 24.55c0,32.74 4.09,12.27 -12.27,20.46zm-155.5 36.82l-36.82 0c0,0 -4.09,0 -8.19,-4.1l12.27 -16.36 28.65 -114.57c36.82,8.19 32.74,12.27 20.46,57.29 -4.1,32.74 -12.27,49.1 -16.38,77.75zm-16.36 -241.42c4.09,8.19 24.55,0 0,49.1 -8.19,-12.27 -12.27,8.19 -12.27,-20.46 0,-57.29 4.09,-16.36 12.27,-28.63zm-270.06 28.63l4.09 4.1 0 -28.65c-28.65,20.46 -12.27,-16.36 -12.27,12.27 0,20.46 -20.46,-4.09 8.19,12.27zm-40.93 -12.27l-4.09 -28.63c-4.1,-49.1 12.27,-16.38 16.36,-8.19 20.46,-4.09 24.55,-16.36 53.2,0l8.17 36.82 0 77.75c-12.27,28.63 -4.09,16.36 -20.45,28.63 -4.1,-4.09 -8.19,-12.27 -8.19,-12.27 4.09,-16.36 4.09,-8.17 8.19,-16.36l8.17 -28.63 -28.63 -16.38c0,-4.09 -4.09,-8.19 -4.09,-4.09l-28.65 -28.65zm658.79 -65.46c-16.38,24.55 -4.1,20.45 -36.82,8.17 16.36,-16.36 8.17,-16.36 36.82,-8.17zm-143.21 20.45l-53.2 12.27c12.27,-44.99 16.36,-49.1 65.48,-53.18 20.45,16.36 16.36,-24.55 16.36,32.74 -8.19,4.09 -8.19,4.09 -28.63,8.17zm-482.84 -106.38c16.36,-16.36 16.36,-20.46 36.82,-28.63 28.65,32.74 16.36,40.91 12.27,49.1 12.27,20.46 12.27,16.36 -8.19,12.27 -53.18,40.93 -36.82,-4.09 -36.82,-4.09l-8.17 -4.1 4.09 -12.27 -36.82 24.55c-20.46,24.57 -32.74,65.48 -32.74,102.3l16.36 24.55 -32.74 32.74c-4.09,0 -4.09,0 -8.17,4.1 -36.82,32.72 -81.84,130.93 -102.3,192.31 -28.63,90.02 -36.82,139.12 -45.01,241.42l-53.18 -8.19c-28.65,126.85 -106.4,331.45 -151.42,466.47 -20.45,61.39 8.19,65.48 -12.27,110.49 -167.76,364.17 -90.01,466.47 -118.66,597.4 -16.36,61.39 -32.74,126.85 -49.1,192.32 -16.36,90.02 -8.19,155.48 45.01,196.41 20.46,12.27 163.67,-16.38 225.04,-24.55 515.58,-45.01 527.86,57.29 552.41,-200.51 24.55,-294.61 73.65,-581.04 147.31,-851.1 110.47,-400.99 57.27,-315.07 249.59,-761.07l335.53 -671.07 -20.46 -28.65c4.1,-4.09 12.27,-16.36 12.27,-20.45 12.27,-16.38 4.1,0 8.19,-16.38l8.19 -40.91c-12.27,-8.19 0,0 -20.46,-12.27 0,0 -16.38,-8.19 -16.38,-8.19 20.46,-16.38 12.29,-16.38 28.65,-36.82l-16.36 -20.46c-8.19,-8.19 -8.19,24.55 -8.19,-16.38 -4.1,-36.82 -8.19,-12.27 12.27,-20.45l24.55 0c20.46,16.36 4.09,-20.46 20.46,20.45 -16.38,32.74 0,8.19 -20.46,16.38 8.19,32.74 -4.09,20.46 24.55,36.82 20.46,12.27 8.19,8.19 36.82,8.19l8.19 8.17c8.19,-8.17 4.09,-8.17 16.36,-16.36 8.19,-8.19 12.27,-4.09 20.46,-12.27l0 -143.21 -36.82 -8.19 -28.63 4.09c0,12.27 0,16.38 0,28.65l-8.19 12.27c-4.1,-4.1 -40.93,12.27 8.19,-53.2l-32.74 4.1 -24.55 0c-8.19,24.55 8.17,8.17 -24.57,32.72 -8.17,12.27 12.29,4.1 -20.45,20.46 -16.38,8.19 -4.1,0 -20.46,4.1 -4.09,-53.2 -4.09,-16.38 8.19,-28.65 4.09,-16.36 8.17,-20.46 16.36,-40.91l45.01 -28.65 40.91 -20.46c180.05,-90.01 167.78,-237.32 98.21,-274.14 -77.75,-12.27 -196.41,-4.1 -278.25,-4.1 -98.21,0 -167.78,-16.36 -237.32,36.84 -73.66,53.18 -200.51,225.04 -237.34,302.79l0 24.55 -16.36 4.09c-36.84,53.2 -151.4,253.7 -163.67,310.98 32.72,16.36 49.1,16.36 85.92,24.55 20.46,8.19 16.36,-8.19 16.36,16.36l-61.37 24.57c-45.01,0 -53.2,-8.19 -98.2,4.09 -24.57,40.91 -90.02,175.95 -94.13,216.87l4.1 16.36c4.09,-8.19 12.27,-8.19 12.27,-8.19zm167.76 -45.01c4.1,-16.36 -16.36,-12.27 16.38,-12.27 28.63,0 8.17,0 16.36,12.27 4.1,0 8.19,0 8.19,0 0,4.1 4.09,4.1 4.09,4.1l20.46 8.17 16.36 0 40.93 -12.27 4.09 0c20.46,8.19 8.19,-24.55 16.38,24.55 0,8.19 -4.1,28.65 -4.1,36.84l-90.01 4.09c-28.65,-49.1 -24.57,-12.27 -49.12,-45.01l0 -20.46zm200.51 -220.96c61.37,-16.36 53.18,-12.27 57.29,32.74 -57.29,-4.09 -32.74,4.1 -57.29,-32.74zm-114.57 -24.55c20.46,-12.27 12.27,-12.27 49.1,-4.09 45.01,4.09 36.82,0 53.2,24.55 -12.27,8.19 8.17,12.27 -49.12,4.09 -85.92,-8.17 -45.01,-8.17 -53.18,-24.55zm200.5 -16.36c4.09,-8.19 -16.36,-16.38 16.36,-12.27 24.57,0 8.19,0 20.46,12.27 -12.27,8.19 8.19,20.46 -36.82,0zm-253.7 -12.27c4.1,36.82 0,8.17 -8.19,16.36 -16.36,-16.36 -12.27,-8.19 0,-32.74 12.29,16.38 4.1,-20.45 8.19,16.38zm654.71 -135.04c12.27,24.55 12.27,12.27 0,36.82 -16.38,-16.36 -24.57,-20.45 0,-36.82zm110.47 -106.38c-4.09,-28.65 24.55,-12.27 32.74,4.09l-32.74 -4.09zm-253.7 -16.36c20.46,-16.38 20.46,-12.29 45.01,-8.19 -12.27,32.74 0,16.36 -20.46,32.74l-24.55 -24.55zm200.51 -192.32l-8.19 12.27c-8.19,-12.27 -12.27,-16.36 0,-32.74 8.19,12.27 4.09,0 8.19,20.46z"/>
  <path class="fil1" d="M6836.06 2247.64c12.27,16.38 12.27,-28.63 16.36,69.56 -16.36,-16.36 -24.55,0 -16.36,-69.56zm-65.48 0l4.1 -4.09c28.63,12.27 24.55,-28.63 24.55,20.46 -20.46,32.74 -4.1,12.27 -28.65,28.63 -8.17,-12.27 -20.45,4.1 -12.27,-24.55 4.1,-32.74 -8.17,-4.09 12.27,-20.46zm65.48 -69.56c20.46,20.46 8.19,-4.09 12.27,36.84 -16.36,-20.46 -8.19,16.36 -12.27,-36.84zm-61.37 4.1l24.55 -4.1 0 28.65c0,4.09 -4.1,4.09 -4.1,8.19 -4.09,0 -8.17,0 -8.17,0 -24.55,0 -8.19,8.17 -20.46,-4.1 -12.27,-20.46 -12.27,-20.46 8.19,-28.63zm-188.24 24.55c-4.09,20.46 16.38,16.36 28.65,16.36 20.46,-4.09 20.46,-8.17 12.27,8.19 4.09,4.09 4.09,4.09 4.09,8.19 0,28.63 16.38,16.36 -24.55,45.01l-28.63 -8.19c-20.46,8.19 -16.38,8.19 -12.27,-12.27 -20.46,-16.38 -16.38,-65.48 0,-81.84 -4.1,-20.46 -8.19,-16.38 12.27,-16.38l0 4.1c16.36,-12.27 -24.55,-16.38 36.82,-8.19l20.46 16.36 -16.38 20.46 -20.46 -8.19c8.19,24.57 12.29,16.38 -12.27,16.38zm-28.63 -126.85c12.27,24.55 12.27,24.55 0,49.1 -4.09,-4.09 -12.27,16.38 -12.27,-20.46 -4.09,-57.27 -4.09,-8.17 12.27,-28.63zm491.02 -81.84l4.1 61.37c-12.27,-8.17 -16.38,24.55 -16.38,-24.55 -4.09,-45.01 8.19,-32.74 12.27,-36.82zm-425.54 -24.55c-4.1,-16.38 -8.19,-8.19 12.27,-8.19 8.17,12.27 8.17,4.09 12.27,20.46 0,8.19 0,24.55 4.09,28.63 0,16.38 0,28.65 4.09,45.01 12.27,0 8.19,-4.09 4.1,12.27 0,0 0,4.1 0,4.1 -4.1,4.09 -4.1,4.09 -8.19,8.17 -16.36,16.38 8.19,8.19 -24.55,8.19l-4.09 -85.92c-8.19,-12.27 -4.1,8.17 -4.1,-12.27 0,-12.27 0,-16.38 4.1,-20.46zm85.92 -61.37c85.92,-4.1 53.2,36.82 20.46,81.84l-24.55 -12.27 4.09 -69.56zm278.25 -106.4c28.63,16.38 32.74,8.19 12.27,45.01 -24.55,-20.46 -24.55,-12.27 -12.27,-45.01zm-265.97 -151.4c53.2,8.19 32.74,-16.36 85.92,8.19l8.19 49.1 106.38 12.27c40.93,0 24.55,-8.17 49.12,12.27l-36.84 12.27c-28.63,16.38 -20.45,16.38 -40.91,36.84l-16.38 57.29 -36.82 49.1c-4.09,0 -4.09,4.09 -4.09,4.09 -73.65,-28.63 -45.01,-8.19 -85.92,-77.75l0 0 -20.46 -24.55c12.27,-32.74 -16.38,-4.09 28.63,-28.63l12.27 -45.01 8.19 -12.27 -73.65 -49.1c-20.46,-8.19 -12.27,20.45 -20.46,-20.46l36.82 16.36zm-756.99 -229.13c4.09,-20.46 -12.27,-12.27 8.19,-12.27 24.55,0 4.09,-16.38 16.36,8.17l0 8.19 12.27 16.36 8.19 28.65c-45.01,8.19 -8.19,4.09 -24.55,-8.19l0 0 -24.57 -8.19c-12.27,-8.17 -20.45,20.46 -8.17,-20.45 4.09,-24.55 -4.1,-4.1 12.27,-12.27zm388.72 -12.27c12.27,20.45 8.19,12.27 0,32.72 -12.27,-16.36 -28.63,-20.45 0,-32.72zm106.38 -163.69c57.29,-4.09 12.29,-4.09 28.65,16.38 -16.36,16.36 0,8.19 -28.65,12.27l-36.82 -8.19 36.82 -20.46zm-495.1 -65.46c8.19,-12.27 -20.46,-12.27 24.55,-12.27l0 65.46c-49.1,-4.09 -16.36,-4.09 -28.65,-12.27l-24.55 0c8.19,-57.29 -4.09,-32.74 28.65,-40.91zm-147.31 -24.55c-4.09,49.1 12.27,24.55 -32.74,28.63 12.27,-28.63 4.1,-20.46 32.74,-28.63zm-77.75 0c8.19,12.27 20.46,8.17 0,28.63 -16.36,-20.46 -12.27,-4.09 0,-28.63zm229.15 -28.65c24.55,-12.27 24.55,-12.27 49.1,0 -12.27,28.65 -40.91,49.1 -49.1,0zm302.79 12.27l-20.46 36.82c4.1,24.57 4.1,12.27 32.74,36.84 -8.17,16.36 0,4.09 -12.27,24.55l-20.46 20.45 -4.09 49.12c16.38,0 12.27,-4.1 12.27,12.27 -16.36,16.36 -20.46,12.27 -28.63,40.91l8.17 36.82c-49.1,81.85 -12.27,57.29 -44.99,90.02 -32.74,32.74 -53.2,151.4 -118.68,167.78 -12.27,-32.74 4.1,-24.55 -24.55,-61.39 0,-4.09 0,-8.17 -4.09,-8.17 0,0 0,-4.1 -4.09,-8.19l24.55 -28.65 -20.46 -36.82 20.46 -8.17c0,-24.55 -8.19,-24.55 16.36,-12.27 -32.74,0 -4.09,4.09 -16.36,-16.38l-28.65 -8.19 12.27 -20.45c8.19,-53.2 36.82,-73.66 36.82,-130.95 -12.27,-8.17 -4.09,0 -20.45,0 -40.93,0 40.91,20.46 -28.65,-4.09 0,0 -4.09,-4.09 -8.19,-4.09 0,0 -4.09,0 -4.09,-4.1 12.27,-16.36 4.09,-16.36 20.46,-24.55 20.46,-4.09 24.55,0 40.91,4.1l0 -24.57c-20.45,-57.27 -44.99,-57.27 -49.1,-130.93l40.93 -36.82c0,-20.46 0,-12.27 16.36,-12.27l12.27 -4.09c0,-16.38 -4.09,-12.27 12.27,-12.27 -4.09,-16.38 -8.17,-12.29 8.19,-8.19 -4.09,-4.1 -8.19,-4.1 -8.19,-4.1 -4.09,-4.09 -4.09,-4.09 -8.17,-4.09 -24.57,-12.27 12.27,0 -16.38,-8.19 0,0 -20.46,0 -24.55,0 -4.09,-36.82 16.36,-65.46 40.93,-90.01l8.17 -12.27 -69.56 12.27 0 -24.55c-12.27,-12.29 0,0 -12.27,-16.38 -4.09,-8.19 -4.09,-8.19 -12.27,-16.36l-28.63 0c-28.65,8.17 -12.27,8.17 -40.93,0 16.38,-28.65 12.27,-28.65 53.2,-32.74 24.55,-4.09 45.01,-4.09 69.56,-4.09 0,-28.65 -12.27,-53.2 -24.55,-81.84 -16.38,-49.12 0,-45.01 -8.19,-77.75l-40.93 -8.19c8.19,-16.36 -12.27,-24.55 73.66,-40.91 0,65.46 -16.38,49.1 -4.1,102.28 20.46,12.27 40.93,12.27 57.29,12.27 36.82,0 -8.17,12.29 16.38,-4.09 -16.38,-24.55 -32.74,-20.46 -36.82,-28.63 0,-4.1 -4.1,0 -4.1,-4.1 0,-57.29 12.27,-102.3 -40.91,-114.57 -36.84,-4.09 -49.12,0 -49.12,-36.82 40.93,-4.09 8.19,-4.09 24.57,8.19l77.73 -8.19 24.55 77.75c40.93,0 20.46,4.09 45.01,-12.27 -8.17,-28.65 12.27,-8.19 -16.36,-24.55 -36.82,-20.46 -16.38,-53.2 -8.19,-77.75 4.09,-8.19 4.09,0 4.09,-24.55 -20.45,-4.09 -40.91,8.19 -73.65,-4.09 -24.55,24.55 -49.1,44.99 -90.02,16.36 28.65,-20.46 61.39,-28.63 90.02,-49.1l20.46 -20.46c28.63,12.27 4.09,-16.36 28.63,24.55 49.12,-20.46 -36.82,32.74 24.55,-8.19 4.1,-61.37 -114.56,-249.59 -151.4,-286.42l-20.45 16.36c-12.27,20.46 4.09,0 -16.38,16.38 0,0 -8.17,4.09 -12.27,8.17 -8.19,4.1 -4.09,0 -24.55,12.27l-16.36 4.1c-12.27,12.27 24.55,8.17 -24.55,12.27 -4.1,-40.93 -4.1,20.45 0,-20.46 0,0 0,-4.09 0,-8.19 4.09,-4.09 4.09,-4.09 8.17,-4.09l0 -8.19 0 -24.55 -20.46 -4.09c-8.17,8.17 16.38,8.17 -24.55,8.17l8.19 -16.36 12.27 -12.27c0,-16.36 -4.09,-16.36 8.19,-12.27 -4.1,-16.36 -4.1,-12.27 12.27,-12.27l4.09 -12.27 8.19 -12.27c-4.09,-16.38 -8.19,-12.27 8.19,-12.27l4.09 -40.93c-16.36,0 -12.27,4.1 -8.19,-12.27 -16.36,4.09 -12.27,8.19 -12.27,-8.19 -28.63,0 -12.27,4.1 -16.36,-12.27 -53.2,-8.17 -102.3,-32.72 -163.67,-28.63 -65.48,0 -114.57,16.36 -171.86,20.46 -8.19,16.36 12.27,16.36 -24.55,12.27l0 61.37c8.19,8.19 4.09,-16.36 12.27,24.55 -45.01,4.09 -36.82,8.19 -45.01,-32.74 -4.09,-28.63 12.27,-8.17 -12.27,-36.82 -12.27,-20.46 -16.36,-12.27 -20.46,-12.27 -20.46,4.09 -20.46,12.27 -16.36,-8.19l-110.49 0c-4.09,12.27 -4.09,28.65 -4.09,32.74 -8.19,36.82 0,16.38 -16.38,36.82l-24.55 0 -20.45 -65.46c-90.02,-4.1 -147.31,49.1 -184.14,94.11 -4.1,53.18 12.27,53.18 8.17,94.11 -8.17,45.01 -20.45,28.63 4.1,81.84 49.1,122.76 192.31,302.79 216.86,364.17 4.1,0 4.1,4.1 4.1,4.1l28.63 32.74c24.55,28.63 16.38,16.36 24.55,49.1l286.43 400.99c130.93,180.05 347.81,568.77 462.38,679.25l0 -12.27 4.09 -28.65c-8.17,-40.91 -20.45,-57.29 -40.91,-85.92 24.55,-45.01 24.55,-65.48 90.02,-73.65 12.27,-12.29 -24.57,-12.29 28.63,-12.29l-8.19 28.65c4.1,20.46 12.27,16.36 -8.17,16.36 -20.46,24.55 -28.65,53.2 -28.65,90.02l-4.09 40.93c0,4.09 4.09,0 8.17,8.17 0,4.1 4.1,4.1 8.19,4.1 12.27,16.36 0,0 12.27,24.55l28.65 45.01c16.36,16.36 12.27,8.17 20.45,32.74 0,65.46 8.19,40.91 -24.55,73.65l130.95 233.23c44.99,73.65 94.11,147.31 135.02,220.96l49.1 65.48 36.84 53.18 73.65 77.75c0,0 4.09,4.09 4.09,4.09l28.65 28.65c77.75,0 106.38,-53.2 155.48,-135.04 40.93,-69.56 98.21,-147.31 77.75,-200.5 73.65,-40.93 122.75,-122.76 167.76,-208.68 36.84,-69.56 32.74,-53.2 32.74,-147.31 -4.09,-61.37 -16.36,-98.2 -53.18,-126.85 -28.65,0 -8.19,-20.46 -8.19,-53.18 -8.19,-4.1 -16.38,-4.1 -28.65,-8.19 -32.72,-16.36 -12.27,-4.09 -24.55,-16.36l8.19 -28.65c-8.19,-36.82 -20.46,-65.48 -49.1,-81.84 -28.65,16.36 -36.82,28.63 -65.48,-4.09 16.38,-40.93 40.93,-8.19 20.46,-73.66l-4.09 0 -278.25 -417.37c-114.57,-159.57 -85.94,-126.85 -180.05,-306.88l-143.21 -249.61 -12.27 -8.17c-4.1,0 -4.1,-4.1 -4.1,-4.1 -4.09,-4.09 -4.09,-4.09 -8.17,-8.17 -8.19,-8.19 -8.19,-12.27 -12.27,-20.46 -16.38,20.46 -20.46,-16.38 -12.29,28.63l0 4.1c4.1,8.17 24.57,-4.1 4.1,40.91l-20.46 20.46c0,-4.09 -4.09,4.09 -8.19,4.09l4.1 53.2 40.91 130.93 65.48 -12.27c-12.27,32.74 -20.46,53.2 -45.01,73.65 -36.82,28.65 -32.74,20.46 -53.2,61.39 -12.27,28.63 -4.09,16.36 -32.72,40.91l-16.38 -36.82 -65.46 24.55 0 12.27c0,45.01 0,12.27 12.27,28.65 -4.1,-12.27 -8.19,-12.27 8.17,-12.27 -4.09,-12.27 -8.17,-12.27 8.19,-8.19 4.09,-12.27 24.55,-49.1 20.46,-8.19l0 36.82 61.37 -4.09c16.36,-16.36 4.09,-12.27 40.93,-12.27l0 24.55 -4.1 16.38c36.82,12.27 24.55,4.09 69.56,0l4.1 81.84c-40.93,-16.38 -24.57,4.09 -40.93,-24.55l-32.74 8.17zm-486.93 -122.75l98.21 12.27c-20.46,12.27 -32.74,12.27 -45.01,20.45 -32.74,24.57 4.09,8.19 -36.82,32.74l-20.46 -40.91 -12.27 -12.27c8.19,-16.38 -20.46,-12.27 16.36,-12.27zm188.24 -24.55c32.72,-16.38 32.72,-12.29 49.1,8.17 -20.46,12.27 28.63,20.46 -28.65,8.19 -28.63,-4.09 -16.36,-12.27 -20.45,-16.36zm-45.01 -40.93c20.45,0 20.45,-4.09 16.36,8.19l12.27 40.91c-24.55,-4.09 -12.27,0 -32.74,-8.17l-12.27 -12.29 -8.17 -24.55 24.55 -4.09zm-155.5 -69.56c-4.09,4.09 -8.17,8.19 -12.27,16.36l0 16.38c-16.36,12.27 24.55,8.19 -28.63,12.27 -8.19,0 -20.46,-4.09 -28.65,-4.09 0,-53.2 20.46,-45.01 24.55,-53.2l16.38 -53.2c16.36,-28.63 -4.1,-16.36 32.74,-16.36 12.27,16.36 12.27,8.19 12.27,36.82 0,24.55 -8.19,28.65 -8.19,32.74 4.09,20.46 8.19,16.36 -8.19,12.27zm143.23 -118.66c12.27,-8.19 0,-8.19 24.55,-12.27 0,0 4.09,8.17 8.17,4.09 0,0 4.1,4.09 4.1,8.19 -12.27,4.09 12.27,4.09 -20.46,4.09l-16.36 -4.09zm-69.56 28.63c-12.27,12.27 4.09,8.19 -16.38,8.19 -16.36,0 -16.36,12.27 -12.27,-12.27 -8.19,-8.19 -12.27,24.55 -12.27,-24.55 0,-32.74 32.74,-24.55 36.82,-24.55l16.38 12.27c0,0 4.09,4.09 4.09,4.09 0,4.09 0,8.19 0,8.19 4.09,20.46 20.46,16.36 -8.19,16.36l0 4.1c4.1,12.27 8.19,12.27 -8.17,8.17zm-519.67 -204.58c20.46,-8.19 8.19,-12.27 32.74,0 -12.27,12.27 20.45,8.17 -16.38,12.27 -32.74,4.09 -8.17,-4.1 -16.36,-12.27zm57.29 -90.02c0,20.46 8.17,20.46 -8.19,16.36 -4.09,0 -4.09,4.1 -4.09,4.1 0,0 -4.1,0 -4.1,0 0,-4.1 0,-4.1 -4.09,-8.19l-8.19 -28.65c0,-4.09 0,-20.45 0,-24.55 53.2,-20.45 12.27,-8.17 28.65,0 12.27,24.55 8.17,12.27 0,40.93zm646.5 -130.93c-12.27,-20.46 -28.63,-40.93 0,-53.2l16.38 -16.36c24.55,8.17 8.19,-4.1 20.46,16.36 -12.27,20.46 -12.27,4.09 -4.1,36.82 12.27,85.94 28.65,110.49 -36.82,114.57 12.27,-32.74 4.09,-57.29 4.09,-98.2zm-785.62 -118.68c16.36,-8.17 -16.38,0 24.55,-8.17 36.82,-8.19 0,-4.1 28.63,0l32.74 -8.19c4.1,0 28.65,-4.09 28.65,-4.09 16.36,0 8.17,0 20.45,4.09l0 61.37c24.57,28.65 20.46,65.48 12.27,94.11 -36.82,-4.09 -32.72,-4.09 -40.91,-49.1 -4.09,-45.01 -20.46,-61.37 -65.48,-61.37l-36.82 -12.27c-36.82,-24.55 -4.09,36.82 -8.19,-12.27 0,0 4.1,0 4.1,-4.1zm360.08 -69.56c0,4.1 12.27,-12.27 12.27,24.55 0,45.01 -8.19,24.57 -12.27,28.65 -12.27,-24.55 -12.27,-28.65 0,-53.2zm-241.42 -110.47c0,-4.09 4.09,-4.09 4.09,-4.09 0,0 4.1,-4.1 4.1,-4.1 16.36,0 12.27,-8.19 12.27,8.19 16.36,-4.09 8.17,-4.09 8.17,12.27l0 16.36 -24.55 0c-20.45,-12.27 -20.45,-12.27 -4.09,-28.63z"/>
  <path class="fil1" d="M5743.54 3119.22c4.09,-16.38 -12.27,-8.19 16.36,-16.38 40.93,0 8.19,-4.09 20.46,8.19 -4.09,36.82 -4.09,36.82 -20.46,57.29l-20.46 -12.27c-8.17,-8.19 -20.45,12.27 -8.17,-20.46 4.09,-28.65 -8.19,-8.19 12.27,-16.36zm-253.7 -147.31l-36.82 -4.1c-8.19,-8.17 -20.46,20.46 -8.19,-32.72 32.74,-8.19 28.65,-12.27 57.29,4.09 4.09,57.29 0,16.36 -12.27,32.74zm233.23 -69.56l20.46 0c20.46,0 8.17,-4.1 8.17,12.27 0,16.36 4.1,4.09 -4.09,16.36 -16.36,16.38 -16.36,12.27 -28.63,0 -4.1,0 -4.1,-8.17 -4.1,-4.09 0,0 0,-4.09 0,-8.19 4.1,-20.46 -12.27,-4.09 8.19,-16.36zm-147.31 -122.76c-4.09,-24.55 -4.09,-36.82 -4.09,-61.37 0,-4.09 4.09,-24.55 4.09,-28.63 4.1,-24.57 -8.17,-8.19 12.27,-16.38 4.1,-16.36 0,-16.36 4.1,0 20.45,20.46 12.27,57.29 12.27,94.11 0,85.94 8.17,73.66 -16.38,85.94l-16.36 -8.19 4.09 -65.48zm-196.41 -77.73l-4.09 32.72c-8.19,-4.09 -16.36,8.19 -16.36,-16.36 0,-24.55 8.17,-12.27 20.45,-16.36zm180.05 -130.95c16.36,-12.27 -32.74,-20.45 36.82,-8.17 12.27,28.63 12.27,20.45 4.09,57.29l-20.45 -8.19 -20.46 -40.93zm-282.33 -36.82l49.1 0c-4.1,40.93 -8.19,45.01 -49.1,49.1l0 -49.1zm36.82 -110.47c73.65,20.45 69.56,126.85 -4.1,57.29 0,0 0,-4.1 0,-4.1 0,0 0,-4.09 0,-8.19 0,0 0,-4.09 0,-4.09l4.1 -12.27c0,-4.09 -4.1,-16.36 0,-28.63zm376.44 -32.74c-32.74,12.27 -28.63,-4.1 -36.82,-20.46 4.09,-20.46 12.27,-16.36 36.82,-20.46 16.38,28.65 12.27,16.38 0,40.93zm-319.15 -237.34l20.45 -12.27 0 -98.2c36.84,-4.1 12.29,-4.1 20.46,12.27 16.38,36.82 32.74,45.01 57.29,69.56l98.21 -12.27c20.45,16.36 4.09,0 20.45,16.36 8.19,12.27 0,8.19 8.19,24.55 57.29,12.27 94.11,45.01 139.12,73.66 36.82,12.27 32.74,12.27 57.29,49.1 -20.46,36.82 -8.19,20.46 -40.93,40.91l-81.84 8.19c-20.45,-40.91 -4.09,-53.18 -28.63,-90.02l-40.93 20.46 4.1 28.65c16.36,0 8.17,-4.1 8.17,12.27 24.57,53.18 -8.17,45.01 -8.17,114.57l-8.19 85.92c-32.74,-12.27 -32.74,-12.27 -40.91,-49.1l4.09 -12.27c-4.09,0 -12.27,-4.1 -12.27,-8.19l-8.19 -4.09c-8.19,12.27 -12.27,8.17 -20.46,12.27l0 8.17 0 32.74c-32.72,-4.09 -44.99,-8.19 -53.18,-24.55 -8.19,-12.27 -8.19,-20.46 -8.19,-32.74 4.09,-24.55 0,-8.17 12.27,-20.46l28.65 0c12.27,-40.91 8.17,-53.18 8.17,-94.11l-28.63 4.1 0 32.74 -24.55 -8.19 -24.55 0 4.09 49.1c-40.93,4.09 -12.27,4.09 -20.46,-12.27l-20.46 -192.32c-32.72,0 -36.82,4.1 -61.37,-8.17 32.74,-28.65 24.55,-16.38 40.93,-16.38zm32.74 -208.68c4.09,8.19 8.17,4.1 8.17,24.55 12.27,45.01 -8.17,45.01 -8.17,45.01 -24.57,-32.72 -16.38,-40.91 0,-69.56zm8.17 -85.92c-4.09,20.46 -4.09,28.63 -24.55,32.74 -16.36,-8.19 -16.36,20.46 -12.27,-20.46l-12.27 -28.63c8.19,0 20.46,0 28.63,0 28.65,8.17 4.1,-4.1 20.46,16.36zm-155.48 -73.65c4.09,44.99 4.09,4.09 -8.19,20.45 -40.91,-20.45 -28.63,-24.55 0,-45.01 4.09,12.29 8.19,4.1 8.19,24.57zm40.91 -114.57c-40.91,16.36 -49.1,20.45 -77.73,0 0,-49.12 -4.1,-16.38 16.36,-28.65l81.84 -8.17c8.19,-8.19 -20.46,-8.19 24.55,-12.29 36.82,0 8.19,4.1 24.55,8.19 4.1,61.37 0,20.46 -12.27,28.65 -24.55,20.45 -28.63,16.36 -57.29,12.27zm110.49 -319.17l12.27 -20.46c0,0 4.09,-4.09 8.19,-4.09 0,0 4.09,-4.09 4.09,-4.09 20.46,-4.1 16.36,-16.38 16.36,8.17 20.46,32.74 12.27,32.74 -16.36,45.01 -24.55,-8.17 -16.36,0 -24.55,-24.55zm-220.96 527.86c12.27,-4.1 28.63,-4.1 24.55,32.74 -12.27,0 -20.46,8.17 -53.2,8.17 -49.1,0 -36.82,24.55 -36.82,135.04 0,57.29 0,114.57 0,175.95 155.5,-12.27 130.93,-53.2 175.95,-36.82 8.19,16.36 12.27,-20.46 4.1,28.63l-24.55 65.48c24.55,20.46 49.1,53.2 57.29,98.2l8.17 24.57c-28.63,16.36 -16.36,0 -40.91,20.45l-36.82 36.82 4.09 8.19 -4.09 45.01c-69.56,-40.91 20.45,-32.74 -53.2,-32.74l8.19 28.65c16.36,24.55 12.27,16.36 20.45,45.01 -12.27,32.72 -16.36,28.63 -28.63,49.1 -16.36,12.27 24.55,16.36 -40.93,8.19l-24.55 4.09 -24.55 85.92c20.46,12.27 24.55,8.19 49.1,8.19l-16.36 12.27c0,4.09 -8.19,4.09 -12.27,8.19 -4.09,69.56 -4.09,139.12 -4.09,208.68 0,331.43 159.57,339.62 486.93,310.98 151.4,-12.29 253.68,53.18 331.43,-53.2 32.74,-45.01 36.82,-102.3 28.65,-167.78l-20.46 -12.27c-12.27,0 -28.65,-4.09 -32.74,-4.09 0,-12.27 0,-12.27 4.09,-20.46l8.19 -16.36c0,0 4.09,-4.09 4.09,-4.09 45.01,-57.29 36.84,-151.42 24.57,-229.15 -20.46,-122.76 -8.19,-135.04 -4.1,-253.7l-49.1 -16.36c16.36,-28.65 -4.09,-8.19 24.55,-28.65 16.36,-8.19 4.09,4.09 24.55,-12.27 -20.46,-139.12 -12.27,-204.6 -45.01,-405.09l-12.27 -16.36c-16.36,-69.56 -114.57,-225.06 -155.48,-286.43l-16.38 -32.74 -85.92 -130.93c-20.46,0 -12.27,4.09 -12.27,-20.46 -24.55,-36.82 -53.2,-77.75 -81.84,-122.75 -16.36,-20.46 -24.55,-36.84 -40.93,-65.48 -16.36,-20.46 -28.63,-32.74 -36.82,-53.2 -20.46,0 -12.27,4.1 -8.17,-16.36 -16.38,0 -12.29,4.09 -8.19,-12.27 -16.38,0 -8.19,12.27 -16.38,-12.27l-20.45 0c-12.27,12.27 24.55,12.27 -16.38,8.19l-12.27 -16.38 -4.09 -16.36 32.74 -16.38c-16.38,-32.74 -36.84,-57.29 -57.29,-90.01 -45.01,-69.56 -155.5,-253.7 -241.42,-204.6 -94.11,49.1 -49.1,319.15 -36.82,392.82 24.55,167.76 -45.01,290.52 40.91,392.82 -16.36,40.91 -16.36,98.2 -8.17,143.21 20.45,12.27 24.55,16.36 61.37,20.46z"/>
  <path class="fil1" d="M8501.43 639.56l57.29 94.11c-49.1,-4.09 -73.65,-45.01 -90.01,-81.84 -8.19,-36.82 0,-40.93 4.09,-45.01 36.82,20.46 8.19,-4.09 28.63,32.74zm28.65 -220.96c0,36.82 -4.09,8.19 -8.19,16.36 -16.36,-20.46 -16.36,-8.17 0,-32.74 8.19,12.27 4.1,-20.45 8.19,16.38zm605.59 -65.48c-24.55,-16.36 -32.74,-24.55 4.09,-36.82l-4.09 36.82zm-225.04 -69.56c0,0 45.01,32.74 8.17,32.74l-24.55 0c-28.63,-16.36 -8.17,4.09 -24.55,-24.55 20.46,-12.27 8.19,-8.19 40.93,-8.19zm-184.14 0l32.74 -12.27c49.1,0 53.18,-12.27 85.92,12.27 -4.09,16.38 16.36,12.27 -20.46,24.55 -16.36,4.1 -20.45,4.1 -32.74,4.1 -20.45,-4.1 -36.82,-8.19 -61.37,-12.27 -4.09,0 -8.19,-4.1 -8.19,-4.1 -4.09,0 -4.09,-4.09 -4.09,-4.09 -12.27,-16.38 -16.36,-12.27 8.19,-8.19zm-126.85 -65.46c49.1,-16.38 28.63,-12.29 77.75,0 -8.19,20.45 -8.19,16.36 -8.19,36.82l-4.09 32.74 -40.93 8.17c-12.27,-24.55 -24.55,-40.91 -24.55,-77.73zm8.19 -73.66l16.36 -8.17 12.27 4.09c36.82,0 8.19,8.19 28.65,-8.19 32.72,-4.09 8.17,-12.27 40.91,8.19 0,53.18 4.09,12.27 -16.36,28.63l-24.55 -8.17 -28.65 0 -40.91 8.17c0,-45.01 -4.1,-8.17 12.27,-24.55zm-208.68 585.14c40.91,36.82 24.55,77.73 81.84,32.72l12.27 -4.09c32.74,16.38 -32.74,-24.55 8.17,8.19 4.1,0 8.19,0 8.19,4.09 0,0 4.09,0 4.09,4.1 94.13,-12.29 -8.17,-28.65 102.3,-40.93l8.19 -20.46 12.27 -16.36 16.36 28.63 12.29 16.38c8.17,4.09 12.27,4.09 20.45,12.27 4.1,-24.55 -4.09,-8.19 20.46,-20.46 36.82,-4.09 24.55,-8.19 53.2,-20.46 57.29,20.46 98.2,28.65 159.57,36.82 81.84,12.27 102.3,-24.55 147.31,-20.45 73.65,8.17 290.52,28.63 364.17,0 73.66,-40.93 32.74,-171.86 73.66,-241.42 12.27,24.55 8.17,45.01 12.27,81.84 40.91,-12.27 110.47,-135.04 135.02,-175.95 40.93,-73.66 69.56,-126.85 81.85,-225.06 28.63,12.27 49.1,16.38 65.46,-57.29 -77.75,-98.2 -155.48,-4.09 -315.07,-28.63l-171.86 12.27c-69.56,8.19 -507.38,4.09 -597.4,4.09 -167.78,0 -212.79,24.55 -298.71,106.38 -12.27,98.21 -4.09,184.14 -20.46,282.35 -24.55,143.21 0,122.75 4.1,241.42zm294.61 32.72l4.09 -4.09c-20.45,4.09 -16.36,0 -4.09,4.09z"/>
 </g>
</svg>
